# 3ds Max Wavefront OBJ Exporter v0.97b - (c)2007 guruware
# 创建的文件:29.08.2018 20:08:20

mtllib other.mtl

#
# object 玄关_吊顶
#

v  260.4520 98.8189 49.8652
v  260.4520 98.8189 13.7079
v  307.9326 98.8189 13.7079
v  307.9326 98.8189 49.8652
v  252.6963 101.3380 56.7866
v  252.6963 94.8819 56.7866
v  315.6883 94.8819 56.7866
v  315.6883 101.3380 56.7866
v  315.6883 94.8819 6.7866
v  315.6883 101.3380 6.7866
v  252.6963 94.8819 6.7866
v  252.6963 101.3380 6.7866
v  260.4520 94.8819 49.8652
v  307.9326 94.8819 49.8652
v  307.9326 94.8819 13.7079
v  260.4520 94.8819 13.7079
# 16 vertices

vn 0.0000 -1.0000 -0.0000
vn 0.0000 0.0000 1.0000
vn 1.0000 0.0000 -0.0000
vn 0.0000 0.0000 -1.0000
vn -1.0000 0.0000 -0.0000
# 5 vertex normals

vt 0.0000 0.0000 0.0000
vt 0.0000 1.0000 0.0000
vt 1.0000 1.0000 0.0000
vt 1.0000 0.0000 0.0000
# 4 texture coords

g 玄关_吊顶
usemtl 外墙
s 4
f 1/1/1 2/2/1 3/3/1 
f 3/3/1 4/4/1 1/1/1 
usemtl 木地板
s 8
f 5/1/2 6/2/2 7/3/2 
f 7/3/2 8/4/2 5/1/2 
usemtl 地砖
s 16
f 8/1/3 7/2/3 9/3/3 
f 9/3/3 10/4/3 8/1/3 
usemtl 门
s 32
f 10/1/4 9/2/4 11/3/4 
f 11/3/4 12/4/4 10/1/4 
usemtl 墙灰色
s 64
f 12/1/5 11/2/5 6/3/5 
f 6/3/5 5/4/5 12/1/5 
usemtl 外墙
s off
f 6/1/1 13/1/1 14/4/1 
f 14/4/1 7/4/1 6/1/1 
f 7/4/1 14/4/1 15/3/1 
f 15/3/1 9/3/1 7/4/1 
f 9/3/1 15/3/1 16/2/1 
f 16/2/1 11/2/1 9/3/1 
f 11/2/1 16/2/1 13/1/1 
f 13/1/1 6/1/1 11/2/1 
f 13/1/4 1/1/4 4/4/4 
f 4/4/4 14/4/4 13/1/4 
f 14/4/5 4/4/5 3/3/5 
f 3/3/5 15/3/5 14/4/5 
f 15/3/2 3/3/2 2/2/2 
f 2/2/2 16/2/2 15/3/2 
f 16/2/3 2/2/3 1/1/3 
f 1/1/3 13/1/3 16/2/3 
# 26 faces

#
# object Cylinder07
#

v  -82.9953 0.2277 -100.5583
v  -83.4564 0.2277 -100.5183
v  -83.4428 0.2277 -100.6721
v  -83.4143 0.2277 -100.3693
v  -83.3217 0.2277 -100.2432
v  -83.1897 0.2277 -100.1550
v  -83.0343 0.2277 -100.1155
v  -82.8742 0.2277 -100.1294
v  -82.7287 0.2277 -100.1950
v  -82.6153 0.2277 -100.3045
v  -82.5478 0.2277 -100.4446
v  -82.5342 0.2277 -100.5984
v  -82.5763 0.2277 -100.7473
v  -82.6689 0.2277 -100.8735
v  -82.8009 0.2277 -100.9617
v  -82.9563 0.2277 -101.0012
v  -83.1164 0.2277 -100.9873
v  -83.2619 0.2277 -100.9217
v  -83.3753 0.2277 -100.8122
v  -83.4564 0.4342 -100.5183
v  -83.4428 0.4342 -100.6721
v  -83.4143 0.4342 -100.3693
v  -83.3217 0.4342 -100.2432
v  -83.1897 0.4342 -100.1550
v  -83.0343 0.4342 -100.1155
v  -82.8742 0.4342 -100.1294
v  -82.7287 0.4342 -100.1950
v  -82.6153 0.4342 -100.3045
v  -82.5478 0.4342 -100.4446
v  -82.5342 0.4342 -100.5984
v  -82.5763 0.4342 -100.7473
v  -82.6689 0.4342 -100.8735
v  -82.8009 0.4342 -100.9617
v  -82.9563 0.4342 -101.0012
v  -83.1164 0.4342 -100.9873
v  -83.2619 0.4342 -100.9217
v  -83.3753 0.4342 -100.8122
v  -82.9953 0.4342 -100.5583
# 38 vertices

vn 0.0000 -1.0000 -0.0000
vn -0.9692 0.0000 -0.2464
vn -1.0017 0.0000 0.0982
vn -0.9134 0.0000 0.4309
vn -0.7149 0.0000 0.7116
vn -0.4302 0.0000 0.9066
vn -0.0936 0.0000 0.9921
vn 0.2543 0.0000 0.9580
vn 0.5715 0.0000 0.8084
vn 0.8198 0.0000 0.5612
vn 0.9692 0.0000 0.2464
vn 1.0017 0.0000 -0.0982
vn 0.9134 0.0000 -0.4309
vn 0.7149 0.0000 -0.7116
vn 0.4302 0.0000 -0.9066
vn 0.0936 0.0000 -0.9921
vn -0.2543 0.0000 -0.9580
vn -0.5715 0.0000 -0.8084
vn -0.8198 0.0000 -0.5612
vn 0.0000 1.0000 -0.0000
# 20 vertex normals

g Cylinder07
usemtl 墙灰色
s 1
f 17//6 18//6 19//6 
f 17//6 20//6 18//6 
f 17//6 21//6 20//6 
f 17//6 22//6 21//6 
f 17//6 23//6 22//6 
f 17//6 24//6 23//6 
f 17//6 25//6 24//6 
f 17//6 26//6 25//6 
f 17//6 27//6 26//6 
f 17//6 28//6 27//6 
f 17//6 29//6 28//6 
f 17//6 30//6 29//6 
f 17//6 31//6 30//6 
f 17//6 32//6 31//6 
f 17//6 33//6 32//6 
f 17//6 34//6 33//6 
f 17//6 35//6 34//6 
f 17//6 19//6 35//6 
s 8
f 19//7 36//8 37//7 
f 19//7 18//8 36//8 
f 18//8 38//9 36//8 
f 18//8 20//9 38//9 
f 20//9 39//10 38//9 
f 20//9 21//10 39//10 
f 21//10 40//11 39//10 
f 21//10 22//11 40//11 
f 22//11 41//12 40//11 
f 22//11 23//12 41//12 
f 23//12 42//13 41//12 
f 23//12 24//13 42//13 
f 24//13 43//14 42//13 
f 24//13 25//14 43//14 
f 25//14 44//15 43//14 
f 25//14 26//15 44//15 
f 26//15 45//16 44//15 
f 26//15 27//16 45//16 
f 27//16 46//17 45//16 
f 27//16 28//17 46//17 
f 28//17 47//18 46//17 
f 28//17 29//18 47//18 
f 29//18 48//19 47//18 
f 29//18 30//19 48//19 
f 30//19 49//20 48//19 
f 30//19 31//20 49//20 
f 31//20 50//21 49//20 
f 31//20 32//21 50//21 
f 32//21 51//22 50//21 
f 32//21 33//22 51//22 
f 33//22 52//23 51//22 
f 33//22 34//23 52//23 
f 34//23 53//24 52//23 
f 34//23 35//24 53//24 
f 35//24 37//7 53//24 
f 35//24 19//7 37//7 
usemtl 外墙
s 1
f 54//25 37//25 36//25 
f 54//25 36//25 38//25 
f 54//25 38//25 39//25 
f 54//25 39//25 40//25 
f 54//25 40//25 41//25 
f 54//25 41//25 42//25 
f 54//25 42//25 43//25 
f 54//25 43//25 44//25 
f 54//25 44//25 45//25 
f 54//25 45//25 46//25 
f 54//25 46//25 47//25 
f 54//25 47//25 48//25 
f 54//25 48//25 49//25 
f 54//25 49//25 50//25 
f 54//25 50//25 51//25 
f 54//25 51//25 52//25 
f 54//25 52//25 53//25 
f 54//25 53//25 37//25 
# 72 faces

#
# object Cylinder08
#

v  -82.9953 0.2277 -167.8362
v  -83.4564 0.2277 -167.8762
v  -83.4428 0.2277 -167.7224
v  -83.4143 0.2277 -168.0252
v  -83.3217 0.2277 -168.1514
v  -83.1897 0.2277 -168.2395
v  -83.0343 0.2277 -168.2791
v  -82.8742 0.2277 -168.2652
v  -82.7287 0.2277 -168.1995
v  -82.6153 0.2277 -168.0901
v  -82.5478 0.2277 -167.9500
v  -82.5342 0.2277 -167.7962
v  -82.5763 0.2277 -167.6472
v  -82.6689 0.2277 -167.5210
v  -82.8009 0.2277 -167.4329
v  -82.9563 0.2277 -167.3933
v  -83.1164 0.2277 -167.4072
v  -83.2619 0.2277 -167.4729
v  -83.3753 0.2277 -167.5823
v  -83.4564 0.4342 -167.8762
v  -83.4428 0.4342 -167.7224
v  -83.4143 0.4342 -168.0252
v  -83.3217 0.4342 -168.1514
v  -83.1897 0.4342 -168.2395
v  -83.0343 0.4342 -168.2791
v  -82.8742 0.4342 -168.2652
v  -82.7287 0.4342 -168.1995
v  -82.6153 0.4342 -168.0901
v  -82.5478 0.4342 -167.9500
v  -82.5342 0.4342 -167.7962
v  -82.5763 0.4342 -167.6472
v  -82.6689 0.4342 -167.5210
v  -82.8009 0.4342 -167.4329
v  -82.9563 0.4342 -167.3933
v  -83.1164 0.4342 -167.4072
v  -83.2619 0.4342 -167.4729
v  -83.3753 0.4342 -167.5823
v  -82.9953 0.4342 -167.8362
# 38 vertices

vn 0.0000 -1.0000 -0.0000
vn -0.9692 0.0000 0.2464
vn -1.0017 0.0000 -0.0982
vn -0.9134 0.0000 -0.4309
vn -0.7149 0.0000 -0.7116
vn -0.4302 0.0000 -0.9066
vn -0.0936 0.0000 -0.9921
vn 0.2543 0.0000 -0.9580
vn 0.5715 0.0000 -0.8084
vn 0.8198 0.0000 -0.5612
vn 0.9692 0.0000 -0.2464
vn 1.0017 0.0000 0.0982
vn 0.9134 0.0000 0.4309
vn 0.7149 0.0000 0.7116
vn 0.4302 0.0000 0.9066
vn 0.0936 0.0000 0.9921
vn -0.2543 0.0000 0.9580
vn -0.5715 0.0000 0.8084
vn -0.8198 0.0000 0.5612
vn 0.0000 1.0000 -0.0000
# 20 vertex normals

g Cylinder08
usemtl 墙灰色
s 1
f 57//26 56//26 55//26 
f 56//26 58//26 55//26 
f 58//26 59//26 55//26 
f 59//26 60//26 55//26 
f 60//26 61//26 55//26 
f 61//26 62//26 55//26 
f 62//26 63//26 55//26 
f 63//26 64//26 55//26 
f 64//26 65//26 55//26 
f 65//26 66//26 55//26 
f 66//26 67//26 55//26 
f 67//26 68//26 55//26 
f 68//26 69//26 55//26 
f 69//26 70//26 55//26 
f 70//26 71//26 55//26 
f 71//26 72//26 55//26 
f 72//26 73//26 55//26 
f 73//26 57//26 55//26 
s 8
f 75//27 74//28 57//27 
f 74//28 56//28 57//27 
f 74//28 76//29 56//28 
f 76//29 58//29 56//28 
f 76//29 77//30 58//29 
f 77//30 59//30 58//29 
f 77//30 78//31 59//30 
f 78//31 60//31 59//30 
f 78//31 79//32 60//31 
f 79//32 61//32 60//31 
f 79//32 80//33 61//32 
f 80//33 62//33 61//32 
f 80//33 81//34 62//33 
f 81//34 63//34 62//33 
f 81//34 82//35 63//34 
f 82//35 64//35 63//34 
f 82//35 83//36 64//35 
f 83//36 65//36 64//35 
f 83//36 84//37 65//36 
f 84//37 66//37 65//36 
f 84//37 85//38 66//37 
f 85//38 67//38 66//37 
f 85//38 86//39 67//38 
f 86//39 68//39 67//38 
f 86//39 87//40 68//39 
f 87//40 69//40 68//39 
f 87//40 88//41 69//40 
f 88//41 70//41 69//40 
f 88//41 89//42 70//41 
f 89//42 71//42 70//41 
f 89//42 90//43 71//42 
f 90//43 72//43 71//42 
f 90//43 91//44 72//43 
f 91//44 73//44 72//43 
f 91//44 75//27 73//44 
f 75//27 57//27 73//44 
usemtl 外墙
s 1
f 74//45 75//45 92//45 
f 76//45 74//45 92//45 
f 77//45 76//45 92//45 
f 78//45 77//45 92//45 
f 79//45 78//45 92//45 
f 80//45 79//45 92//45 
f 81//45 80//45 92//45 
f 82//45 81//45 92//45 
f 83//45 82//45 92//45 
f 84//45 83//45 92//45 
f 85//45 84//45 92//45 
f 86//45 85//45 92//45 
f 87//45 86//45 92//45 
f 88//45 87//45 92//45 
f 89//45 88//45 92//45 
f 90//45 89//45 92//45 
f 91//45 90//45 92//45 
f 75//45 91//45 92//45 
# 72 faces

#
# object Line21
#

#
# object 空调
#

v  19.8897 0.0000 -197.3769
v  19.8897 0.0000 -215.0926
v  35.9009 0.0000 -215.0926
v  35.9009 0.0000 -197.3769
v  19.8897 70.8661 -197.3769
v  35.9009 70.8661 -197.3769
v  35.9009 70.8661 -215.0926
v  19.8897 70.8661 -215.0926
# 8 vertices

vn 0.0000 -1.0000 -0.0000
vn 0.0000 1.0000 -0.0000
vn 0.0000 0.0000 1.0000
vn 1.0000 0.0000 -0.0000
vn 0.0000 0.0000 -1.0000
vn -1.0000 0.0000 -0.0000
# 6 vertex normals

vt 1.0000 0.0000 0.0000
vt 1.0000 1.0000 0.0000
vt 0.0000 1.0000 0.0000
vt 0.0000 0.0000 0.0000
# 4 texture coords

g 空调
usemtl 门
s 2
f 93/5/46 94/6/46 95/7/46 
f 95/7/46 96/8/46 93/5/46 
s 4
f 97/8/47 98/5/47 99/6/47 
f 99/6/47 100/7/47 97/8/47 
s 8
f 93/8/48 96/5/48 98/6/48 
f 98/6/48 97/7/48 93/8/48 
s 16
f 96/8/49 95/5/49 99/6/49 
f 99/6/49 98/7/49 96/8/49 
s 32
f 95/8/50 94/5/50 100/6/50 
f 100/6/50 99/7/50 95/8/50 
s 64
f 94/8/51 93/5/51 97/6/51 
f 97/6/51 100/7/51 94/8/51 
# 12 faces

#
# object 电视
#

v  19.8897 42.2685 -97.5506
v  19.8897 42.2685 -149.3376
v  21.7130 42.2685 -149.3376
v  21.7130 42.2685 -97.5506
v  19.8897 70.8661 -97.5506
v  21.7130 70.8661 -97.5506
v  21.7130 70.8661 -149.3376
v  19.8897 70.8661 -149.3376
# 8 vertices

vn 0.0000 -1.0000 -0.0000
vn 0.0000 1.0000 -0.0000
vn 0.0000 0.0000 1.0000
vn 1.0000 0.0000 -0.0000
vn 0.0000 0.0000 -1.0000
vn -1.0000 0.0000 -0.0000
# 6 vertex normals

vt 1.0000 0.0000 0.0000
vt 1.0000 1.0000 0.0000
vt 0.0000 1.0000 0.0000
vt 0.0000 0.0000 0.0000
# 4 texture coords

g 电视
usemtl 窗
s 2
f 101/9/52 102/10/52 103/11/52 
f 103/11/52 104/12/52 101/9/52 
s 4
f 105/12/53 106/9/53 107/10/53 
f 107/10/53 108/11/53 105/12/53 
s 8
f 101/12/54 104/9/54 106/10/54 
f 106/10/54 105/11/54 101/12/54 
s 16
f 104/12/55 103/9/55 107/10/55 
f 107/10/55 106/11/55 104/12/55 
s 32
f 103/12/56 102/9/56 108/10/56 
f 108/10/56 107/11/56 103/12/56 
s 64
f 102/12/57 101/9/57 105/10/57 
f 105/10/57 108/11/57 102/12/57 
# 12 faces

